<svg xmlns="http://www.w3.org/2000/svg" xmlns:xlink="http://www.w3.org/1999/xlink" width="490" height="592" viewBox="0 0 490 592"><defs><style>.a{fill:#597ef4;}.b{clip-path:url(#a);}.c{fill:#2c2c2c;}.d{fill:#f1f2f2;}.e{fill:#231f20;}.f{fill:#fff;}.g{fill:#354bd4;}.h{font-size:14px;letter-spacing:0.01em;}.i{fill:#d1d3d4;}</style><clipPath id="a"><path class="a" d="M0,0H490a0,0,0,0,1,0,0V592a0,0,0,0,1,0,0H13A13,13,0,0,1,0,579V0A0,0,0,0,1,0,0Z" transform="translate(133 3578)"/></clipPath></defs><g class="b" transform="translate(-133 -3578)"><path class="c" d="M.589,196.881s118.65-40.28,247.165-54,182.358,62.278,199.8,120.765S425.685,427.821,414.182,478.8s22.354,139.98,7.634,195.7-155.285,59.071-155.285,59.071-252.759-.221-253.56,0C5.807,733.572,0,726.784,0,718.411Z" transform="translate(130.21 3436.855)"/></g></svg>