<svg xmlns="http://www.w3.org/2000/svg" xmlns:xlink="http://www.w3.org/1999/xlink" width="490" height="592" viewBox="0 0 490 592"><defs><style>.a{fill:#fef6e2;}.b{clip-path:url(#a);}.c{fill:#f1f2f2;}.d{fill:#231f20;}.e{fill:#fff;}.f{fill:#fece47;}.g{font-size:14px;letter-spacing:0.01em;}.h{fill:#d1d3d4;}</style><clipPath id="a"><path class="a" d="M0,0H490a0,0,0,0,1,0,0V592a0,0,0,0,1,0,0H13A13,13,0,0,1,0,579V0A0,0,0,0,1,0,0Z" transform="translate(133 3578)"/></clipPath></defs><g class="b" transform="translate(-133 -3578)"><path class="a" d="M.589,196.881s118.65-40.28,247.165-54,182.358,62.278,199.8,120.765S425.685,427.821,414.182,478.8s22.354,139.98,7.634,195.7-155.285,59.071-155.285,59.071-252.759-.221-253.56,0C5.807,733.572,0,726.784,0,718.411Z" transform="translate(130.21 3436.855)"/><g transform="translate(61.133 3769.266) rotate(-16)"><path class="c" d="M354.938,107.308V299.541H0V107.308L177.477,0Z" transform="translate(57.976 40.799)"/><path class="d" d="M355.782,301.14H.8a.8.8,0,0,1-.8-.8V108.111a.8.8,0,0,1,.4-.685L177.955.119a.78.78,0,0,1,.828,0L356.243,107.426a.8.8,0,0,1,.382.685V300.344a.8.8,0,0,1-.844.8ZM1.64,299.548H355.034V108.525L178.337,1.695,1.64,108.525Z" transform="translate(57.132 39.996)"/><path class="e" d="M57.323,58.867s8.2-15.314,7.132-25.47S53.312,21.426,53.312,21.426,29,8.771,23.369,0l.191,12.83A35.737,35.737,0,0,1,11.573,5.842s-3.789,6.543.3,12.369c0,0-7.163,1.4-11.875-3.343,0,0,2.4,19.262,19.389,21.745C30.58,38.173,45.145,59.615,57.323,58.867Z" transform="translate(255.208 9.201)"/><path class="d" d="M57.471,60.609c-6.718,0-13.929-6.049-20.9-11.891C30.585,43.7,24.95,38.959,20.078,38.259,2.7,35.712.037,15.973.005,15.814a.8.8,0,0,1,1.353-.653,12.926,12.926,0,0,0,9.965,3.184c-3.184-5.842.207-11.859.366-12.114a.78.78,0,0,1,1.194-.223A39.065,39.065,0,0,0,23.549,12.5L23.374.8a.764.764,0,0,1,.557-.764.8.8,0,0,1,.907.318c5.285,8.214,27.858,20.2,29.545,21.092,1.226.271,10.57,2.611,11.637,12.735,1.082,10.363-6.893,25.374-7.227,26.011a.8.8,0,0,1-.653.414Zm.621-.812ZM2.011,17.756c1.21,4.967,5.444,17.033,18.306,18.927,5.3.78,11.143,5.651,17.272,10.809,6.766,5.667,13.738,11.525,19.882,11.525H57.6c1.258-2.467,7.768-15.712,6.829-24.69-.987-9.551-10.077-11.143-10.459-11.27l-.223-.08C52.807,22.5,32.479,11.834,25,3.254l.159,10.411a.812.812,0,0,1-.3.637.8.8,0,0,1-.7.143A35.133,35.133,0,0,1,12.66,7.886a10.857,10.857,0,0,0,.669,10.665.86.86,0,0,1,.08.764.8.8,0,0,1-.589.478A15.712,15.712,0,0,1,2.011,17.756Z" transform="translate(254.439 8.271)"/><path class="f" d="M89.351,141.88s39.176-47.453,45.655-83.7S118.849,13.608,110.953,10.9,61.908-8.869,41.245,6.031,0,113.879,0,113.879Z" transform="translate(210.572 84.722)"/><path class="d" d="M46.753,93.92,88.89,41.388S118.212,4,101.832,0c0,0-22.732,2.961-59.87,15.919C30.93,19.755,11.971,63.563,0,93.92Z" transform="translate(111.924 179.912)"/><path class="d" d="M47.575,95.5H.742a.78.78,0,0,1-.653-.35.8.8,0,0,1,0-.732C13.365,60.73,31.513,19.755,42.528,15.919,79.3,3.184,102.319,0,102.558,0h.287a6.654,6.654,0,0,1,5.11,4.33c3.773,10.825-16.73,37.154-17.606,38.2L48.2,95.066a.8.8,0,0,1-.621.43ZM2,93.9H47.193L88.963,41.611c.207-.255,20.837-26.743,17.367-36.74a5.014,5.014,0,0,0-3.852-3.263C100.472,1.878,78,5.221,42.926,17.431,34.84,20.249,20.322,47.39,1.92,93.9Z" transform="translate(111.103 179.132)"/><path class="d" d="M53.423,82.506l10.7-26.059s26.107,7.816,43.522,1.258c12.257-4.616,16-20.455,21.538-33.286,0,0-73.226-17.351-89.574-24.419,0,0-1.019,0-19.755,19.675C11.477,28.51,4.807,55.429,0,82.506Z" transform="translate(175.821 191.326)"/><path class="d" d="M54.227,84.109H.8a.8.8,0,0,1-.621-.286.828.828,0,0,1-.175-.637C6.121,48.8,12.886,27.471,20.082,19.941,39.057-.052,40.076,0,40.442.011a.924.924,0,0,1,.287,0c16.157,7.1,88.715,24.276,89.383,24.451a.766.766,0,0,1,.525,1.082c-1.035,2.388-2.022,4.935-2.977,7.386-4.282,11.032-8.723,22.445-19.023,26.329-16.078,6.049-38.969.159-43.331-1.051L54.88,83.679A.78.78,0,0,1,54.227,84.109ZM1.7,82.517H53.7L64.208,56.952a.78.78,0,0,1,.955-.462c.271,0,26.059,7.657,42.98,1.273,9.551-3.614,13.929-14.693,18.1-25.47.844-2.181,1.719-4.425,2.627-6.574-8.453-2.022-72.446-17.4-88.4-24.085-.907.685-4.664,3.98-19.262,19.341C14.415,28.219,7.681,49.47,1.743,82.517Z" transform="translate(175.017 190.519)"/><path class="f" d="M114.246,0S96.736,19.1,86.962,28.654s-28.94,21.92-28.94,21.92S.874,55.174.269,56.081s0,19.882,0,19.882S56.111,86.677,66.3,84.83s34.225-18,34.225-18Z" transform="translate(137.571 90.752)"/><path class="e" d="M9.268,45.786,7.5,63.759s3.184,10.315,15.314,8.469S37.141,62.071,37.141,62.071l7.864-35.117S37.73,21.7,30.869,1.167c0,0-25.342-4.776-26.218,5,0,0-5,17.511-4.632,26.759C.353,41.918,9.109,45.643,9.268,45.786Z" transform="translate(266.873 35.478)"/><path class="d" d="M20.81,74.146A14.008,14.008,0,0,1,7.533,64.9a.653.653,0,0,1,0-.3L9.221,47.085C3.538,44,.227,39.125.02,33.777-.346,24.48,4.477,7.495,4.684,6.715A5.587,5.587,0,0,1,7.056,2.672C13.423-2.2,31.077,1.08,31.809,1.08a.828.828,0,0,1,.621.541c6.654,19.946,13.77,25.342,13.849,25.47a.812.812,0,0,1,.3.812L38.718,63.019c-.111.4-2.547,8.867-14.979,10.777A20.968,20.968,0,0,1,20.81,74.146ZM9.093,64.6c.446,1.242,3.789,9.392,14.327,7.768,11.414-1.751,13.658-9.551,13.674-9.551l7.752-34.591c-1.671-1.449-7.959-7.752-13.865-25.47-2.8-.478-17.7-2.77-23.05,1.289A4.139,4.139,0,0,0,6.164,7.113c0,.318-4.983,17.51-4.632,26.648.271,6.781,5.524,10.49,8.628,12.082a2.037,2.037,0,0,1,.382.239.78.78,0,0,1,.239.653Z" transform="translate(266.092 34.578)"/><path class="e" d="M.111,5.794a7.784,7.784,0,0,1,2.977-3.9A9.758,9.758,0,0,1,10.331.111c2.945.828,4.441,4.425,3.8,7.418A10.841,10.841,0,0,1,7.2,15.409,9.44,9.44,0,0,1,0,14.644" transform="translate(303.043 57.244)"/><path class="d" d="M5.335,17.469A10.172,10.172,0,0,1,.416,16.227a.8.8,0,1,1,.764-1.4,8.708,8.708,0,0,0,6.59.7,10.029,10.029,0,0,0,6.367-7.275c.525-2.5-.669-5.778-3.184-6.479a8.835,8.835,0,0,0-6.59,1.592A6.829,6.829,0,0,0,1.705,6.851.836.836,0,1,1,.114,6.342a8.532,8.532,0,0,1,3.279-4.3A10.427,10.427,0,0,1,11.352.149c3.47.955,5.062,5.094,4.378,8.341A11.668,11.668,0,0,1,8.216,17.1,9.852,9.852,0,0,1,5.335,17.469Z" transform="translate(302.245 56.362)"/><path class="e" d="M6.167,0S-1.124,8.453.149,10.236s5.492,1.21,5.492,1.21" transform="translate(279.239 54.235)"/><path class="d" d="M4.929,12.94A5.826,5.826,0,0,1,.264,11.348C-1.152,9.358,3.448,3.389,6.329.2A.8.8,0,0,1,7.523,1.24C4.021,5.315,1.236,9.645,1.57,10.52c.716.987,3.3,1.051,4.776.86a.8.8,0,1,1,.207,1.592,14.324,14.324,0,0,1-1.624-.032Z" transform="translate(278.471 53.632)"/><ellipse class="d" cx="2.165" cy="1.528" rx="2.165" ry="1.528" transform="matrix(0.16, -0.987, 0.987, 0.16, 295.287, 54.815)"/><ellipse class="d" cx="1.528" cy="2.165" rx="1.528" ry="2.165" transform="translate(277.056 49.653) rotate(-1.99)"/><path class="d" d="M1.226,0S12.146,3.677,19.1.557c0,0-8.755,14.327-19.1,11.764Z" transform="translate(274.915 81.265)"/><path class="d" d="M3.361,14.181a11.049,11.049,0,0,1-2.754-.334A.812.812,0,0,1,0,13L1.212.682a.828.828,0,0,1,.35-.6.8.8,0,0,1,.684,0c.111,0,10.729,3.534,17.32.573a.812.812,0,0,1,.923.207.8.8,0,0,1,0,.939C20.235,2.274,12.849,14.181,3.361,14.181Zm-1.7-1.735C8.805,13.7,15.189,6.429,17.863,2.895c-5.715,1.4-12.655-.3-15.17-1.035Z" transform="translate(274.133 80.519)"/><path class="d" d="M12.261,12.8h-.525L5.862,12.34A6.368,6.368,0,0,1,.02,5.495L.4.719A.8.8,0,0,1,1.261,0L18.231,1.34a.828.828,0,0,1,.541.287.764.764,0,0,1,.191.573l-.382,4.776a6.367,6.367,0,0,1-6.367,5.842ZM1.93,1.658,1.612,5.574A4.776,4.776,0,0,0,5.989,10.7l5.874.462h0a4.648,4.648,0,0,0,3.47-1.114A4.775,4.775,0,0,0,17,6.864l.3-3.916Z" transform="translate(264.023 44.601)"/><path class="d" d="M12.261,12.833h-.525l-5.874-.478A6.367,6.367,0,0,1,.02,5.511L.4.735A.8.8,0,0,1,1.261,0L18.231,1.356a.78.78,0,0,1,.716.844l-.366,4.776a6.367,6.367,0,0,1-6.367,5.858Zm-.4-1.592a4.671,4.671,0,0,0,5.062-4.314l.318-3.916L1.914,1.69l-.3,3.9a4.776,4.776,0,0,0,4.378,5.126Z" transform="translate(285.131 46.305)"/><path class="d" d="M4.874,1.927h0L.735,1.593A.8.8,0,0,1,0,.733.828.828,0,0,1,.862,0L5,.335A.8.8,0,0,1,5,1.927Z" transform="translate(281.152 48.965)"/><path class="d" d="M10.533,12.659c-4.983,0-8.914-3.852-10.49-8.341A.8.8,0,0,1,.17,3.569a.7.7,0,0,1,.669-.318A48.249,48.249,0,0,0,20.769.067a.8.8,0,0,1,.78.08.78.78,0,0,1,.334.716c0,.366-.828,9.105-8.516,11.3a9.933,9.933,0,0,1-2.834.494ZM1.953,4.89c1.671,3.518,5.54,7.386,10.936,5.826,4.967-1.417,6.622-6.224,7.147-8.58A50.812,50.812,0,0,1,1.953,4.89Z" transform="translate(272.93 66.314)"/><path class="f" d="M86.454,4.342c9.265,4.346,24.308,106.161,7.959,113.022C68.944,127.982,0,91.895,0,91.895L13.563,65.2S60.4,79.144,63.643,69.625,50.812,7.749,56.288,2.05,86.454,4.342,86.454,4.342Z" transform="translate(255.462 106.022)"/><path class="e" d="M79.543,15.691A111.336,111.336,0,0,1,56.381,8.257c-5.7-2.722-10.618-5.333-16.969-6.7A68.29,68.29,0,0,0,15.423.664a1.99,1.99,0,0,0-.907.3c-.939.8.446,2.165,1.592,2.531A32.251,32.251,0,0,0,25.658,4.8,91.581,91.581,0,0,0,1.78,10.295C.9,10.629-.13,11.25.013,12.157s1.671,1.178,2.754,1L21.71,9.976A43.951,43.951,0,0,0,7.766,14.051c-.621.3-1.337.748-1.369,1.449,0,1.21,1.687,1.433,2.881,1.194a102.006,102.006,0,0,0,17.033-5.014l-12.56,5.174a1.671,1.671,0,0,0,1.21,2.053,4.966,4.966,0,0,0,2.627-.207l13.419-3.6-8.612,3.184c-1.353.493-2.993,1.417-2.77,2.849.255,1.687,2.595,1.815,4.282,1.592a90.973,90.973,0,0,1,20.169-.748c2.467.143,4.935-.271,7.291.446,3.391,1.035,6.813,3.486,9.965,5.142,4.935,2.579,9.854,5.205,14.773,7.832" transform="translate(192.045 166.307)"/><path class="d" d="M76.8,36.656a.7.7,0,0,1-.35-.08q-7.354-3.932-14.772-7.832c-.987-.509-2.006-1.114-3.04-1.735a33.574,33.574,0,0,0-6.8-3.343,15.138,15.138,0,0,0-4.6-.4H44.723a89.6,89.6,0,0,0-20.01.748,6.16,6.16,0,0,1-4.171-.589,2.308,2.308,0,0,1-.939-1.592,2.547,2.547,0,0,1,.939-2.356l-2.069.557a5.4,5.4,0,0,1-3.04.191,2.69,2.69,0,0,1-1.592-1.385,1.958,1.958,0,0,1,0-1.592c-1.226.286-2.436.557-3.661.812A4.011,4.011,0,0,1,7,17.522a1.7,1.7,0,0,1-.589-1.4c0-1.242,1.305-1.847,1.767-2.069l.923-.43-5.492.923a4.075,4.075,0,0,1-2.849-.414,1.8,1.8,0,0,1-.732-1.194c-.1-.637,0-1.831,2.229-2.643a91.549,91.549,0,0,1,17.4-4.776,30.509,30.509,0,0,1-3.04-.6,3.566,3.566,0,0,1-2.42-2.26,1.592,1.592,0,0,1,.541-1.512A2.5,2.5,0,0,1,15.99.68a68.656,68.656,0,0,1,24.244.891A64.519,64.519,0,0,1,55.341,7.366l2.038.971a112.42,112.42,0,0,0,22.907,7.291.732.732,0,0,1,.541.876.716.716,0,0,1-.875.541,114.524,114.524,0,0,1-23.3-7.466l-2.038-.987A63.675,63.675,0,0,0,39.82,2.924a66.86,66.86,0,0,0-23.735-.876,1.018,1.018,0,0,0-.525.143c0,.446.684,1.051,1.353,1.258a31.838,31.838,0,0,0,9.328,1.274h0a.732.732,0,0,1,0,1.449,91.277,91.277,0,0,0-23.655,5.46c-.637.239-1.369.669-1.305,1.067a.334.334,0,0,0,.143.239,2.706,2.706,0,0,0,1.767.159l14.661-2.483a43.556,43.556,0,0,1,4.314-.732.748.748,0,0,1,.812.621.732.732,0,0,1-.6.828l-4.25.716a43.267,43.267,0,0,0-9.551,3.3c-.78.382-.955.669-.955.828a.271.271,0,0,0,.1.239,2.69,2.69,0,0,0,1.894.207,101.3,101.3,0,0,0,16.937-4.983.732.732,0,0,1,.939.4.748.748,0,0,1-.4.955l-12.194,5.03a.35.35,0,0,0,0,.207,1.226,1.226,0,0,0,.7.621,4.155,4.155,0,0,0,2.229-.207L31.24,15.023a.732.732,0,0,1,.43,1.385l-8.6,3.184c-.748.271-2.467,1.019-2.308,2.054a.876.876,0,0,0,.366.6,4.569,4.569,0,0,0,3.072.334,90.736,90.736,0,0,1,20.344-.764h2.4A16.062,16.062,0,0,1,52,22.282a32.954,32.954,0,0,1,7.1,3.486c1.019.589,2.022,1.178,2.993,1.687q7.4,3.884,14.772,7.832a.716.716,0,0,1,.3.987A.7.7,0,0,1,76.8,36.656Z" transform="translate(191.414 165.654)"/><path class="e" d="M28.654,0C25.358,1.926,7.689,41.659,0,60.618" transform="translate(226.077 100.128)"/><path class="d" d="M.736,62.106a.732.732,0,0,1-.684-1C7.008,43.863,25.219,2.316,28.976.119a.732.732,0,1,1,.748,1.258C26.907,2.968,10.1,40.106,1.4,61.644A.716.716,0,0,1,.736,62.106Z" transform="translate(225.388 99.373)"/><path class="e" d="M.907,0,0,8.087,103.232,52.547l.318-8.5Z" transform="translate(127.843 176.522)"/><path class="d" d="M104.034,54.053a.715.715,0,0,1-.318,0L.483,9.593a.8.8,0,0,1-.478-.828L.913.678a.748.748,0,0,1,.4-.589.764.764,0,0,1,.716,0L104.671,44.1a.78.78,0,0,1,.478.764l-.318,8.5a.828.828,0,0,1-.382.653A.764.764,0,0,1,104.034,54.053ZM1.645,8.3,103.27,52.063l.271-6.813L2.378,1.84Z" transform="translate(127.041 175.812)"/><path class="e" d="M0,14.017S30.07-.405,30.834.009s107.117,42.98,107.117,42.98L102.643,58.064Z" transform="translate(128.75 162.505)"/><path class="d" d="M103.44,59.624a.764.764,0,0,1-.318,0L.478,15.513A.8.8,0,0,1,0,14.8a.78.78,0,0,1,.446-.732C30.9-.549,31.567-.183,32.013.072,33.6.788,138,42.591,139.05,43.052a.764.764,0,0,1,.493.732.78.78,0,0,1-.478.732L103.758,59.592A.764.764,0,0,1,103.44,59.624ZM2.723,14.733,103.44,57.968l33.222-14.12c-16.428-6.59-99.905-40-105.159-42.2-2.069.478-17.988,7.927-28.781,13.085Z" transform="translate(127.954 161.741)"/><path class="e" d="M0,23.575,34.3,7.609,35.626,0,.318,15.075Z" transform="translate(231.075 205.494)"/><path class="d" d="M.8,25.168a.732.732,0,0,1-.446-.127.764.764,0,0,1-.35-.7l.318-8.5a.828.828,0,0,1,.478-.7L36.121.065a.764.764,0,0,1,.8.111A.748.748,0,0,1,37.2.94L35.9,8.533a.844.844,0,0,1-.446.589L1.132,25.041A.829.829,0,0,1,.8,25.168Zm1.1-8.755-.271,6.765L34.386,7.929l.987-5.762Z" transform="translate(230.277 204.697)"/><path class="e" d="M2.117,74.706,0,0,108.072,49.618l-3.311,69.135Z" transform="translate(126.633 101.816)"/><path class="d" d="M105.573,120.318a.764.764,0,0,1-.318,0L2.611,76.207a.78.78,0,0,1-.478-.716L0,.784A.8.8,0,0,1,.366.1.78.78,0,0,1,1.13.1L109.266,49.671a.764.764,0,0,1,.462.748l-3.311,69.135a.8.8,0,0,1-.366.637A.716.716,0,0,1,105.573,120.318ZM3.693,74.933l101.131,43.41,3.184-67.463L1.64,2.026Z" transform="translate(125.821 101.047)"/><path class="d" d="M22.658,100.908a.859.859,0,0,1-.334,0L.467,90.832a.8.8,0,0,1-.446-.907L6.628,62.29a.78.78,0,0,1,.907-.6L50.261,68.53,48.86.812A.78.78,0,0,1,49.64,0h0a.812.812,0,0,1,.8.78l1.417,68.673a.764.764,0,0,1-.287.6.78.78,0,0,1-.637.191L7.949,63.372,1.661,89.654l21.267,9.663a.857.857,0,0,1-.271,1.592Z" transform="translate(266.282 115.824)"/><path class="e" d="M11.286,2.685C7.577-.117,3.136-1.6,0,2.685Z" transform="translate(88.237 271.147)"/><path class="d" d="M12.047,4.147H.76a.748.748,0,0,1-.653-.4.732.732,0,0,1,0-.764A6.733,6.733,0,0,1,4.6.071C6.9-.279,9.547.66,12.429,2.841a.748.748,0,0,1,.255.812.764.764,0,0,1-.637.494ZM2.384,2.7H9.627A7.736,7.736,0,0,0,4.851,1.5,4.776,4.776,0,0,0,2.384,2.7Z" transform="translate(87.477 270.418)"/><path class="e" d="M.79,30.2H.662A.8.8,0,0,1,.01,29.3C.137,28.5,3.193,9.812,9.1.325a.8.8,0,0,1,1.353.828C4.769,10.37,1.6,29.361,1.57,29.552A.78.78,0,0,1,.79,30.2Z" transform="translate(180.062 219.718)"/><path class="d" d="M18.673,1.99,20.3,7.434,0,49.236,5.778,64.184,18.45,53.375,23.655,7.4l2.69-2.77L23.576,0Z" transform="translate(260.556 109.186)"/><path class="e" d="M354.938,0V192.233H0V0L177.477,120.854Z" transform="translate(57.976 148.107)"/><path class="d" d="M355.782,193.844H.8a.8.8,0,0,1-.8-.8V.814a.78.78,0,0,1,.43-.7.812.812,0,0,1,.828,0L178.273,120.682,355.288.114a.78.78,0,0,1,.812,0,.764.764,0,0,1,.43.7V193.048A.8.8,0,0,1,355.782,193.844ZM1.64,192.252H355.034V2.311L178.814,122.337a.828.828,0,0,1-.891,0L1.64,2.311Z" transform="translate(57.132 147.293)"/><path class="d" d="M178.265,122.451a.859.859,0,0,1-.446-.127L.343,1.453A.8.8,0,0,1,.136.355.812.812,0,0,1,1.25.132L178.265,120.7,355.28.132a.8.8,0,0,1,1.1.223.78.78,0,0,1-.207,1.1L178.711,122.323A.907.907,0,0,1,178.265,122.451Z" transform="translate(57.187 147.306)"/><path class="e" d="M0,110.619,177.461,0,354.938,110.619Z" transform="translate(57.976 229.722)"/><path class="d" d="M355.782,112.2H.8a.8.8,0,0,1-.764-.573.78.78,0,0,1,.35-.891L177.955.118a.812.812,0,0,1,.844,0L356.243,110.737a.78.78,0,0,1,.35.891A.8.8,0,0,1,355.782,112.2ZM3.63,110.609H353.06L178.384,1.726Z" transform="translate(57.132 228.935)"/><rect class="f" width="102.405" height="56.766" transform="translate(325.783 270.207) rotate(-14.34)"/><path class="d" d="M14.859,81.987a.938.938,0,0,1-.414-.111.892.892,0,0,1-.366-.493l-14.056-55A.812.812,0,0,1,.6,25.412L99.816.054a.876.876,0,0,1,.6,0,.764.764,0,0,1,.366.493l14.056,55a.8.8,0,0,1-.573.971L15.05,81.876ZM1.773,26.829,15.432,80.284l97.677-24.976L99.53,1.789Z" transform="translate(324.989 244.027)"/><path class="f" d="M0,43.537,41.723,0l57.5,18.163Z" transform="translate(339.847 281.68)"/><path class="d" d="M.8,45.129a.8.8,0,0,1-.684-.4.764.764,0,0,1,.111-.955L41.953.254a.812.812,0,0,1,.812-.223l57.5,18.179a.8.8,0,0,1,.557.78.812.812,0,0,1-.6.748L.994,45.1ZM42.764,1.7,3.3,42.868,97.127,18.879Z" transform="translate(339.044 280.885)"/><path class="f" d="M0,25.374,58.2,46.291,99.221,0Z" transform="translate(325.791 244.845)"/><path class="d" d="M59,47.827a.747.747,0,0,1-.271,0L.526,26.91A.8.8,0,0,1,0,26.13a.812.812,0,0,1,.589-.748L99.811.023a.812.812,0,0,1,.875.35.8.8,0,0,1-.08.955L59.584,47.6a.764.764,0,0,1-.589.223ZM3.5,26.241,58.756,46.092,97.693,2.156Z" transform="translate(324.994 244.105)"/><rect class="f" width="58.326" height="32.331" transform="matrix(0.971, -0.24, 0.24, 0.971, 420.949, 207.214)"/><path class="d" d="M8.555,46.973a.812.812,0,0,1-.78-.6L.022,14.992A.812.812,0,0,1,.6,14.021L57.218.029A.764.764,0,0,1,58.173.6l7.768,31.376a.8.8,0,0,1-.1.6.764.764,0,0,1-.493.366L8.746,46.941Zm-6.8-31.6L9.144,45.206,64.206,31.6,56.9,1.764Z" transform="translate(420.15 192.411)"/><path class="f" d="M0,24.61,23.958,0,56.607,10.6Z" transform="translate(428.705 213.978)"/><path class="d" d="M.795,26.193a.764.764,0,0,1-.684-.4.8.8,0,0,1,.111-.955L24.179.246a.78.78,0,0,1,.812-.207l32.665,10.6a.8.8,0,1,1,0,1.592L1.049,26.225ZM24.975,1.71,3.31,24,54.5,11.341Z" transform="translate(427.91 213.191)"/><path class="f" d="M0,14.008,33.047,26.17,56.623,0Z" transform="translate(420.937 193.205)"/><path class="d" d="M33.845,27.708a.91.91,0,0,1-.287,0L.511,15.546A.8.8,0,0,1,0,14.75a.78.78,0,0,1,.589-.732L57.213.025a.8.8,0,0,1,.876.35.812.812,0,0,1-.1.955L34.434,27.453a.86.86,0,0,1-.589.255ZM3.5,14.973l30.1,11.143L55.08,2.238Z" transform="translate(420.155 192.463)"/><rect class="f" width="50.844" height="28.176" transform="translate(346.801 206.075) rotate(-24.12)"/><path class="d" d="M12.316,48.081a.78.78,0,0,1-.732-.462L.075,21.9a.78.78,0,0,1,.4-1.051L46.86.071a.812.812,0,0,1,1.067.4L59.4,26.114a.8.8,0,0,1,0,.6.876.876,0,0,1-.414.446l-46.4,20.694A.811.811,0,0,1,12.316,48.081ZM1.842,21.975l10.872,24.26L57.653,26.114,46.8,1.854Z" transform="translate(346.012 184.57)"/><path class="f" d="M0,24.8,16.73,0,46.387,4.027Z" transform="translate(358.329 206.974)"/><path class="d" d="M.821,26.4a.78.78,0,0,1-.669-1.242L16.9.357a.8.8,0,0,1,.764-.35L47.319,4.05A.8.8,0,0,1,48,4.718a.812.812,0,0,1-.462.844L1.139,26.256A.812.812,0,0,1,.821,26.4ZM17.933,1.646l-14.9,22.1,41.309-18.5Z" transform="translate(357.508 206.251)"/><path class="f" d="M0,20.774l30.245,5.317L46.4,0Z" transform="translate(346.804 185.293)"/><path class="d" d="M31.016,27.673h-.127L.643,22.356a.78.78,0,0,1-.637-.685.8.8,0,0,1,.462-.828L46.855.07a.812.812,0,0,1,.939.207.78.78,0,0,1,0,.939L31.637,27.322a.812.812,0,0,1-.621.35ZM3.477,21.305l27.157,4.776L45.152,2.648Z" transform="translate(346.017 184.507)"/><path class="e" d="M104.379,0H11.032A11.032,11.032,0,0,0,0,11.032V58.788A11.032,11.032,0,0,0,11.032,69.819H94.143l9.9,16.969.127-16.969h.271a11.032,11.032,0,0,0,11.032-11.032V11.032A11.032,11.032,0,0,0,104.379,0Z" transform="translate(85.228 0.796)"/><path class="d" d="M104.777,88.38a.8.8,0,0,1-.685-.4L94.429,71.411h-82.6A11.844,11.844,0,0,1,0,59.583V11.828A11.843,11.843,0,0,1,11.828,0h93.347A11.828,11.828,0,0,1,117,11.828V59.583A11.827,11.827,0,0,1,105.7,71.4L105.572,87.6a.764.764,0,0,1-.589.748.43.43,0,0,1-.207.032ZM11.828,1.592A10.252,10.252,0,0,0,1.592,11.828V59.583A10.252,10.252,0,0,0,11.828,69.819H94.939a.8.8,0,0,1,.7.4l8.437,14.47.1-14.072a.8.8,0,0,1,.8-.8h.271a10.252,10.252,0,0,0,10.236-10.236V11.828A10.236,10.236,0,0,0,105.238,1.592Z" transform="translate(84.432 0)"/><path class="d" d="M0,25.6,41.834,0,6.383,14.757Z" transform="translate(127.556 12.608)"/><path class="d" d="M.791,27.2a.8.8,0,0,1-.557-.239.812.812,0,0,1-.127-.971L6.474,15.168a.78.78,0,0,1,.382-.334L42.306.061a.8.8,0,0,1,.716,1.417L1.2,27.075A.8.8,0,0,1,.791,27.2Zm6.941-11L3.1,24.051,33.5,5.49Z" transform="translate(126.765 11.798)"/><path class="f" d="M0,14.757l13.69,6.988L35.451,0Z" transform="translate(133.939 12.608)"/><path class="d" d="M14.434,23.238a.8.8,0,0,1-.334,0L.426,16.249a.732.732,0,0,1-.414-.8.7.7,0,0,1,.446-.637L35.908.044a.732.732,0,0,1,.78,1.194L14.944,23.015a.748.748,0,0,1-.509.223ZM2.479,15.581l11.859,6.033L33.123,2.846Z" transform="translate(133.195 11.847)"/><path class="f" d="M55.27,0,10.236,10.745,0,4.9Z" transform="translate(114.121 12.608)"/><path class="d" d="M10.967,12.21a.684.684,0,0,1-.35-.1L.365,6.257A.725.725,0,0,1,.667,4.9L55.937,0a.764.764,0,0,1,.78.6.732.732,0,0,1-.541.828L11.142,12.21ZM3.1,6.145l7.959,4.569L46.083,2.325Z" transform="translate(113.39 11.906)"/><path class="f" d="M0,10.745,3.2,25.6,9.583,14.757,45.034,0Z" transform="translate(124.356 12.608)"/><path class="d" d="M3.9,27.047H3.791a.716.716,0,0,1-.589-.573L.018,11.638a.716.716,0,0,1,.541-.86L45.577.017a.764.764,0,0,1,.876.478.748.748,0,0,1-.414.907L10.8,16.063,4.539,26.7A.748.748,0,0,1,3.9,27.047ZM1.594,12.02,4.253,24.357,9.7,15.124a.716.716,0,0,1,.35-.3L37.109,3.535Z" transform="translate(123.654 11.874)"/><path class="h" d="M183.192,237.58a.8.8,0,0,1,0-1.592c2.117,0,4.234,0,6.367-.159a.8.8,0,0,1,0,1.592C187.426,237.5,185.293,237.548,183.192,237.58Zm-6.367,0h0c-2.117,0-4.25,0-6.367-.159a.8.8,0,0,1-.764-.812.828.828,0,0,1,.828-.78c2.117.08,4.218.127,6.367.159a.8.8,0,0,1,0,1.592Zm19.1-.446a.78.78,0,0,1-.78-.748.8.8,0,0,1,.748-.844c2.1-.111,4.218-.255,6.367-.43a.78.78,0,0,1,.844.732.8.8,0,0,1-.732.86c-2.117.159-4.234.3-6.367.43Zm-31.837,0h0c-2.133-.127-4.25-.271-6.367-.446a.8.8,0,0,1,.127-1.592c2.117.175,4.218.318,6.367.446a.8.8,0,1,1,0,1.592Zm44.572-1a.828.828,0,0,1-.8-.716.8.8,0,0,1,.716-.876q3.184-.334,6.367-.716a.8.8,0,1,1,.207,1.592q-3.184.414-6.367.716Zm-57.2,0h-.08c-2.117-.239-4.234-.493-6.367-.764a.8.8,0,0,1,.207-1.592c2.085.271,4.187.525,6.367.748a.8.8,0,1,1-.1,1.592ZM221.3,234.54a.8.8,0,0,1-.78-.669.78.78,0,0,1,.669-.907c2.085-.318,4.187-.653,6.272-1a.78.78,0,0,1,.907.653.764.764,0,0,1-.637.907c-2.1.366-4.2.7-6.367,1.019Zm-82.443-.127h-.127c-2.1-.334-4.2-.7-6.288-1.082a.809.809,0,0,1,.287-1.592c2.085.4,4.171.748,6.256,1.082a.8.8,0,0,1-.127,1.592Zm95-2.022a.8.8,0,1,1-.159-1.592c2.085-.414,4.171-.844,6.224-1.289a.815.815,0,1,1,.35,1.592l-6.256,1.289Zm-107.5-.318h-.175c-2.085-.446-4.155-.923-6.224-1.433a.78.78,0,0,1-.573-.955.8.8,0,0,1,.955-.589c2.054.509,4.107.971,6.176,1.417a.8.8,0,0,1,.6.955.78.78,0,0,1-.812.6Zm119.867-2.4a.78.78,0,0,1-.764-.6.8.8,0,0,1,.573-.971q3.1-.764,6.161-1.592a.8.8,0,0,1,.971.557.828.828,0,0,1-.557.987c-2.054.541-4.123,1.066-6.192,1.592Zm-132.3-.6h-.223c-2.054-.573-4.091-1.162-6.129-1.783a.831.831,0,0,1,.478-1.592c2.006.621,4.043,1.21,6.081,1.767a.812.812,0,0,1,.557.987.8.8,0,0,1-.732.621Zm144.6-2.722a.8.8,0,0,1-.223-1.592c2.038-.589,4.059-1.226,6.065-1.863a.833.833,0,0,1,.494,1.592c-2.022.653-4.059,1.273-6.113,1.878a.509.509,0,0,1-.191-.016Zm-156.767-1.019a.714.714,0,0,1-.255,0c-2.022-.684-4.027-1.417-6-2.165a.8.8,0,0,1,.557-1.48c1.974.732,3.948,1.449,5.954,2.133a.812.812,0,0,1,.493,1.019.78.78,0,0,1-.716.493Zm168.9-2.9a.78.78,0,0,1-.748-.525.812.812,0,0,1,.493-1.019c2.006-.7,4-1.433,5.969-2.181a.78.78,0,0,1,1.019.462.8.8,0,0,1-.462,1.035c-1.974.748-3.98,1.48-6,2.2a.748.748,0,0,1-.239.032ZM89.877,220.834a.684.684,0,0,1-.3,0c-1.974-.828-3.948-1.687-5.858-2.547a.8.8,0,0,1-.382-1.067.78.78,0,0,1,1.051-.382c1.894.86,3.836,1.719,5.794,2.531a.78.78,0,0,1,.43,1.035.764.764,0,0,1-.7.414ZM282.588,217.9a.764.764,0,0,1-.732-.494.78.78,0,0,1,.43-1.035c1.958-.812,3.9-1.592,5.826-2.5a.8.8,0,0,1,1.051.414.812.812,0,0,1-.4,1.051c-1.942.86-3.9,1.687-5.874,2.515a1,1,0,0,1-.271.032ZM78.352,215.533a.941.941,0,0,1-.35-.08c-1.91-.955-3.8-1.958-5.651-2.977a.8.8,0,0,1-.318-1.082.812.812,0,0,1,1.082-.318c1.831,1.019,3.709,2.006,5.6,2.945a.828.828,0,0,1,.35,1.082.812.812,0,0,1-.716.43Zm215.9-2.8a.764.764,0,0,1-.716-.446.8.8,0,0,1,.366-1.067c1.91-.923,3.8-1.863,5.683-2.834a.8.8,0,0,1,.732,1.417c-1.894.971-3.789,1.926-5.731,2.849a.653.653,0,0,1-.334.064ZM67.224,209.388a.8.8,0,0,1-.414-.127c-1.831-1.1-3.645-2.245-5.412-3.407a.8.8,0,0,1-.223-1.1.78.78,0,0,1,1.1-.223c1.751,1.146,3.55,2.276,5.365,3.375a.8.8,0,0,1,.271,1.082A.812.812,0,0,1,67.224,209.388Zm238.334-2.531a.828.828,0,0,1-.7-.4.812.812,0,0,1,.318-1.083c1.847-1.035,3.677-2.1,5.476-3.184a.8.8,0,0,1,.828,1.369q-2.722,1.592-5.54,3.184A.8.8,0,0,1,305.558,206.857ZM56.607,202.368a.828.828,0,0,1-.462-.143q-2.611-1.894-5.11-3.868a.8.8,0,0,1-.127-1.114.828.828,0,0,1,1.13-.127c1.592,1.305,3.327,2.579,5.03,3.82a.8.8,0,0,1,.191,1.114.812.812,0,0,1-.653.318Zm-9.965-7.959a.828.828,0,0,1-.525-.191c-1.433-1.258-2.865-2.547-4.234-3.836l-.493-.478a.78.78,0,0,1,0-1.114.8.8,0,0,1,1.13,0l.478.462c1.369,1.289,2.77,2.563,4.2,3.789a.8.8,0,0,1-.525,1.4Zm-9.233-8.755a.812.812,0,0,1-.573-.239c-1.5-1.592-2.961-3.184-4.362-4.68a.78.78,0,0,1,0-1.114.8.8,0,0,1,1.13,0c1.4,1.592,2.849,3.184,4.33,4.632a.8.8,0,0,1,0,1.13.859.859,0,0,1-.525.334Zm-8.5-9.551a.812.812,0,0,1-.621-.3c-1.369-1.592-2.69-3.343-3.964-5.014a.812.812,0,0,1,.159-1.114.8.8,0,0,1,1.114.159c1.258,1.592,2.579,3.327,3.916,4.967a.78.78,0,0,1-.1,1.114.812.812,0,0,1-.509.334Zm-7.657-10.172a.78.78,0,0,1-.653-.35c-1.21-1.767-2.388-3.582-3.486-5.381a.8.8,0,0,1,1.353-.828c1.082,1.767,2.245,3.566,3.438,5.317a.78.78,0,0,1-.207,1.1.748.748,0,0,1-.446.287ZM14.6,155.09a.812.812,0,0,1-.7-.414c-1.035-1.878-2.022-3.8-2.945-5.7a.8.8,0,0,1,.382-1.067.78.78,0,0,1,1.051.366c.907,1.878,1.894,3.773,2.9,5.635a.764.764,0,0,1-.3,1.067.7.7,0,0,1-.382.255ZM9.042,143.756a.8.8,0,0,1-.748-.493C7.482,141.3,6.7,139.283,6,137.293a.8.8,0,0,1,1.5-.541c.7,1.974,1.465,3.964,2.276,5.906a.812.812,0,0,1-.43,1.035A.733.733,0,0,1,9.042,143.756Zm-4.234-12a.78.78,0,0,1-.764-.573c-.589-2.053-1.13-4.139-1.592-6.208A.792.792,0,1,1,4,124.622c.462,2.038.987,4.091,1.592,6.113a.8.8,0,0,1-.541.987.573.573,0,0,1-.207.032ZM2.022,119.337a.8.8,0,0,1-.8-.669c-.334-2.117-.6-4.25-.812-6.367a.8.8,0,1,1,1.592-.143c.207,2.069.478,4.171.812,6.256a.8.8,0,0,1-.653.923ZM.8,106.681a.812.812,0,0,1-.8-.78v-3.184c0-1.082,0-2.2,0-3.279a.78.78,0,0,1,.828-.764.8.8,0,0,1,.764.812c0,1.067,0,2.149,0,3.184v3.088a.8.8,0,0,1-.78.828Zm.43-12.735h0a.78.78,0,0,1-.716-.86c.223-2.133.509-4.282.876-6.367a.78.78,0,0,1,.907-.653.8.8,0,0,1,.653.923c-.35,2.054-.637,4.155-.844,6.256a.828.828,0,0,1-.844.716ZM3.375,81.4H3.184a.8.8,0,0,1-.573-.971c.493-2.085,1.082-4.155,1.735-6.176a.8.8,0,0,1,1-.509.78.78,0,0,1,.509.987c-.637,1.99-1.21,4.027-1.7,6.081a.8.8,0,0,1-.748.6Zm3.9-12.114a.653.653,0,0,1-.3,0,.8.8,0,0,1-.446-1.035c.8-1.974,1.687-3.948,2.627-5.858a.8.8,0,1,1,1.417.7c-.907,1.878-1.783,3.8-2.563,5.763a.812.812,0,0,1-.7.446Zm5.635-11.35a.748.748,0,0,1-.4-.111.78.78,0,0,1-.287-1.082c1.082-1.831,2.213-3.661,3.391-5.444a.8.8,0,0,1,1.321.876c-1.146,1.751-2.276,3.566-3.343,5.365A.8.8,0,0,1,12.91,57.939ZM19.93,47.3a.748.748,0,0,1-.478-.159.8.8,0,0,1-.175-1.1c1.273-1.719,2.595-3.422,3.948-5.062a.78.78,0,0,1,1.114-.111.8.8,0,0,1,.111,1.114c-1.337,1.592-2.642,3.3-3.884,5a.812.812,0,0,1-.637.271ZM28,37.467a.732.732,0,0,1-.525-.207.8.8,0,0,1,0-1.13c1.433-1.592,2.945-3.184,4.457-4.6a.78.78,0,0,1,1.114,0,.8.8,0,0,1,0,1.13c-1.5,1.449-2.977,2.977-4.409,4.537a.78.78,0,0,1-.637.223Zm9.105-8.9a.764.764,0,0,1-.589-.271.78.78,0,0,1,0-1.114c1.592-1.417,3.279-2.786,4.951-4.091a.812.812,0,0,1,.987,1.273c-1.592,1.273-3.3,2.627-4.887,4.011a.8.8,0,0,1-.462.143ZM169.39,26.054a.8.8,0,0,1-.7-.43A27.555,27.555,0,0,0,165,20.673a.8.8,0,1,1,1.194-1.067,27.585,27.585,0,0,1,3.9,5.285.78.78,0,0,1-.334,1.067.731.731,0,0,1-.366.048ZM47.247,20.721a.748.748,0,0,1-.653-.35.78.78,0,0,1,.207-1.1c1.751-1.21,3.566-2.372,5.381-3.47a.78.78,0,0,1,1.1.271.8.8,0,0,1-.271,1.1c-1.8,1.067-3.582,2.229-5.317,3.407A.748.748,0,0,1,47.247,20.721ZM161,16.55a.78.78,0,0,1-.509-.191,53.126,53.126,0,0,0-5.062-3.709.8.8,0,0,1,.876-1.337,55.581,55.581,0,0,1,5.205,3.836.8.8,0,0,1-.509,1.4ZM58.071,14.162a.812.812,0,0,1-.716-.43.8.8,0,0,1,.334-1.067c1.878-.987,3.82-1.926,5.778-2.8a.78.78,0,0,1,1.051.4.812.812,0,0,1-.4,1.051c-1.926.86-3.836,1.783-5.683,2.754a.78.78,0,0,1-.366.1ZM150.4,9.578a.732.732,0,0,1-.35-.1c-1.831-.907-3.773-1.767-5.747-2.531a.794.794,0,1,1,.573-1.48,52.808,52.808,0,0,1,5.89,2.595.8.8,0,0,1,.35,1.067.812.812,0,0,1-.78.446ZM69.74,8.941a.812.812,0,0,1-.748-.509.78.78,0,0,1,.462-1.019c1.99-.764,4.027-1.464,6.065-2.1a.764.764,0,0,1,.987.525.78.78,0,0,1-.525.987c-1.99.637-4.012,1.321-5.969,2.069a.748.748,0,0,1-.334.048Zm12.13-3.8a.8.8,0,1,1-.191-1.592c2.054-.525,4.155-.987,6.256-1.385a.8.8,0,0,1,.939.621.812.812,0,0,1-.637.939c-2.069.4-4.139.86-6.176,1.369Zm56.67-.143h-.207c-1.974-.557-4.027-1.067-6.129-1.5a.8.8,0,0,1-.621-.939.812.812,0,0,1,.939-.621,63.868,63.868,0,0,1,6.24,1.592.812.812,0,0,1,.557.987.812.812,0,0,1-.844.478ZM94.366,2.733a.8.8,0,1,1-.111-1.592c2.1-.287,4.234-.525,6.367-.7a.8.8,0,1,1,.127,1.592c-2.085.191-4.2.414-6.272.7Zm31.726-.287h-.111c-2.022-.255-4.139-.478-6.272-.621a.8.8,0,0,1-.748-.844.812.812,0,0,1,.86-.748c2.165.159,4.314.366,6.367.637a.8.8,0,0,1-.1,1.592Zm-19.1-.812a.8.8,0,0,1-.8-.764.812.812,0,0,1,.764-.828c2.117,0,4.282-.1,6.367,0a.812.812,0,0,1,.78.812.8.8,0,0,1-.812.78h-6.367Z" transform="translate(0 83.976)"/></g></g></svg>