<svg xmlns="http://www.w3.org/2000/svg" xmlns:xlink="http://www.w3.org/1999/xlink" width="636" height="785" viewBox="0 0 636 785"><defs><style>.a,.d{fill:#fff;}.a{stroke:#707070;}.b{clip-path:url(#a);}.c{fill:#373737;}.e{fill:#242424;}.f{fill:#231f20;}.g{fill:#354bd4;}.h{fill:#444;}</style><clipPath id="a"><rect class="a" width="636" height="785" transform="translate(1040.087 260.444)"/></clipPath></defs><g class="b" transform="translate(-1040.087 -260.444)"><g transform="translate(1039.898 357.705)"><path class="c" d="M238.014,0C369.465,0,476.027,8.7,476.027,19.431S369.465,38.863,238.014,38.863,0,30.163,0,19.431,106.562,0,238.014,0Z" transform="translate(0 551.532)"/><rect class="d" width="169.242" height="137.89" transform="translate(465.871 388.544)"/><path class="e" d="M762.757,568.3H593.515a1.336,1.336,0,0,1-1.337-1.336V429.045a1.336,1.336,0,0,1,1.337-1.336H762.757a1.363,1.363,0,0,1,1.336,1.336V566.962a1.363,1.363,0,0,1-1.337,1.336Zm-167.906-2.673H761.42V430.382H594.878Z" transform="translate(-127.644 -40.501)"/><path class="e" d="M762.757,445.779H593.515a1.336,1.336,0,1,1,0-2.673H762.757a1.336,1.336,0,0,1,1.336,1.336,1.363,1.363,0,0,1-1.337,1.336Z" transform="translate(-127.644 -38.178)"/><path class="d" d="M339.22,222.007a18.71,18.71,0,0,1-15.663-30.6c-10.21-4.7-15.609-16.785-14.861-27.984s6.655-21.383,14.032-29.989c6.067-7.029,13.685-13.364,22.8-15.1a14.967,14.967,0,0,0,4.971-1.39,12.749,12.749,0,0,0,3.154-3.181c6.655-8.5,14.861-16.3,25.124-19.725s22.826-1.47,29.695,6.9a22.452,22.452,0,0,1,36.992,19.779,38.676,38.676,0,0,1,31.325,26.915c3.822,14.059-2.673,30.577-15.636,37.232-1.5.775-3.288,1.791-3.234,3.448a5,5,0,0,0,1.283,2.673c4.17,5.96,2.085,14.594-2.673,19.993s-11.867,8.259-18.71,10.985a10.477,10.477,0,0,1,2.058,11.867,22.344,22.344,0,0,1-8.874,9.3c-14.861,9.6-33.25,6.6-49.9,6.949-15.369.321-30.63-9.488-40.814-20.607C338.312,227.353,336.735,223.5,339.22,222.007Z" transform="translate(-170.432 -91.096)"/><path class="e" d="M399.695,251.771h-7.8c-3.475,0-7.11-.16-10.531,0-13.952.241-29.4-7.591-41.856-21.035a9.168,9.168,0,0,1-2.673-6.709.965.965,0,0,1,0-.294,19.939,19.939,0,0,1-15.128-31.7c-9.221-5.078-14.968-16.545-14.166-28.519.668-10.237,5.506-20.581,14.353-30.791,7.7-8.874,15.4-13.952,23.574-15.529l.909-.16a7.644,7.644,0,0,0,6.308-3.8c8.393-10.691,16.812-17.266,25.846-20.287,11.146-3.715,23.36-1.123,30.283,6.281a23.815,23.815,0,0,1,38.3,20.634,40.092,40.092,0,0,1,31.165,27.583c4.063,14.941-3.127,32.074-16.331,38.782-1.336.668-2.539,1.417-2.512,2.218a3.5,3.5,0,0,0,.775,1.5l.24.347c4.758,6.735,2.058,16.171-2.887,21.623a46.185,46.185,0,0,1-17.266,10.691,12.455,12.455,0,0,1,1.016,12,23.094,23.094,0,0,1-9.275,9.809C422.12,250.835,410.894,251.771,399.695,251.771Zm-15.369-2.887h7.618c13.364.267,27.129.561,38.542-6.816a20.608,20.608,0,0,0,8.366-8.713,9.115,9.115,0,0,0-1.737-10.424,1.337,1.337,0,0,1-.454-1.229,1.363,1.363,0,0,1,.829-1.042c6.254-2.512,13.364-5.346,18.095-10.691,4.25-4.677,6.628-12.7,2.673-18.309l-.24-.294a5.344,5.344,0,0,1-1.283-2.994c0-2.673,2.539-3.956,3.956-4.677,12.135-6.254,18.71-21.917,14.968-35.709A37.419,37.419,0,0,0,445.4,122.22a1.336,1.336,0,0,1-1.123-1.5,21.169,21.169,0,0,0-34.746-18.71,1.31,1.31,0,0,1-.989.321,1.283,1.283,0,0,1-.909-.481c-6.014-7.324-17.64-10-28.225-6.441-8.526,2.833-16.545,9.141-24.51,19.271a13.632,13.632,0,0,1-3.5,3.5,12.429,12.429,0,0,1-4.544,1.39l-.855.16c-7.564,1.47-14.781,6.254-22.077,14.647-8.446,9.756-13.043,19.592-13.685,29.214-.775,11.547,5,22.505,14.086,26.728a1.363,1.363,0,0,1,.748.909,1.337,1.337,0,0,1-.294,1.149,17.293,17.293,0,0,0,14.54,28.412,1.31,1.31,0,0,1,1.39.936,1.336,1.336,0,0,1-.588,1.55,1.149,1.149,0,0,0-.588.909,6.549,6.549,0,0,0,1.978,4.517c11.814,12.883,26.728,20.42,39.8,20.153Z" transform="translate(-170.608 -91.271)"/><path class="d" d="M504.822,545.127c6.121,0,51.746,4.945,73.1,15.556s25.98,11.44,21.65,25.766S557.637,604.3,529.011,598.9a193.136,193.136,0,0,1-52.788-19.191Z" transform="translate(-145.142 -22.782)"/><path class="e" d="M556.167,602.891a145.647,145.647,0,0,1-27.209-2.673,195.336,195.336,0,0,1-53.162-19.3,1.337,1.337,0,0,1-.615-.855,1.2,1.2,0,0,1,.267-.989l28.6-34.586a1.123,1.123,0,0,1,.909-.455h.267c7.457,0,52.013,5.078,73.4,15.689l4.811,2.379c17.133,8.393,21.757,10.691,17.48,24.857C598.21,595.942,580.623,602.891,556.167,602.891ZM478.281,579.5a193.352,193.352,0,0,0,51.131,18.362c28.733,5.346,65.19,1.55,69.172-11.6,3.662-12.188,1.016-13.5-16.224-21.944l-4.811-2.379c-20.394-10.13-64.014-15.288-72.006-15.449Z" transform="translate(-145.302 -22.947)"/><path class="d" d="M509.508,545.011a16.464,16.464,0,0,1,12.322,18.71c-2,15.208-34.158,15.85-36,16.037S509.508,545.011,509.508,545.011Z" transform="translate(-143.707 -22.8)"/><path class="e" d="M485.983,580.787a1.417,1.417,0,0,1-1.176-.695c-.4-.8-1.042-2.031,23.868-35.735a1.2,1.2,0,0,1,1.283-.454c.134,0,15.369,3.822,13.364,19.939-2.031,15.475-31.325,16.839-37.179,16.946Zm24.055-34.292c-7.831,10.691-19.485,26.728-22.4,31.807,7.323-.348,31.405-2.406,33.036-14.781A14.968,14.968,0,0,0,510.145,546.6Z" transform="translate(-143.863 -22.973)"/><path class="d" d="M314.061,579.981c-.935.481-9.676,11.841-47.79,16.384s-52.253,12.75-60.753-7.27-2.673-32.956,16.037-38.676,70.535-10.451,80.692-.882S314.061,579.981,314.061,579.981Z" transform="translate(-186.569 -22.943)"/><path class="e" d="M224.492,603.306c-9.435,0-15.5-3.154-19.939-13.578s-5.105-19.378-1.871-26.3c2.994-6.415,9.3-11.146,18.71-14.006,17.587-5.346,71.017-10.852,81.868-.615,10.4,9.783,12.054,30.363,12.135,31.219a1.283,1.283,0,0,1-.588,1.149l-.374.321c-10.985,10-32.074,14.353-47.9,16.224-8.206.989-15.262,2.138-21.382,3.154a140.687,140.687,0,0,1-20.661,2.432Zm49.34-57.893c-18.309,0-40.493,2.913-51.665,6.334C213.4,554.42,207.573,558.7,204.9,564.47c-2.94,6.254-2.3,14.433,1.9,24.3,6.281,14.834,15.556,13.364,37.9,9.7,6.254-1.016,13.364-2.165,21.6-3.154,15.449-1.844,36.056-6.067,46.56-15.636h0c-.374-3.5-2.673-20.794-11.306-29.027C297.7,546.856,286.715,545.413,273.832,545.413Z" transform="translate(-186.725 -23.094)"/><path class="d" d="M316.625,571.789s-17.293,14.433-28.813,12.723-27.45-8.018-21.035-20.447,47.71-19.912,47.71-19.912Z" transform="translate(-176.97 -22.93)"/><path class="e" d="M289.95,586.035a14.506,14.506,0,0,1-2.165-.161c-8.633-1.283-19.057-4.971-22.4-11.52a11.172,11.172,0,0,1,.454-10.691c6.629-12.883,46.881-20.233,48.592-20.554a1.23,1.23,0,0,1,.962.241,1.283,1.283,0,0,1,.481.882l2.138,27.61a1.256,1.256,0,0,1-.428,1.043C316.892,573.446,301.684,586.035,289.95,586.035Zm23.6-40.253c-7.083,1.39-40.092,8.419-45.438,19a8.793,8.793,0,0,0-.481,8.473c2.94,5.693,12.562,9.007,20.607,10.21,9.809,1.47,24.536-9.809,27.37-12.054Z" transform="translate(-177.131 -23.09)"/><path class="e" d="M519.541,466.334s-18.229,71.1-84.755,84.675-100.952,10-124.526-34.907-8.018-72.38-8.018-72.38l209.949-4.17Z" transform="translate(-172.156 -38.714)"/><path class="f" d="M380.1,559.5c-32.074,0-54.338-11.172-70.856-42.6-23.628-45.037-8.58-72.513-8.018-73.663a1.336,1.336,0,0,1,1.149-.668l209.949-4.17a1.31,1.31,0,0,1,1.336.989l7.27,26.728a1.524,1.524,0,0,1,0,.695c-.187.722-19.191,72.166-85.8,85.663C414.1,556.824,395.894,559.5,380.1,559.5Zm-76.79-114.289c-2.085,4.41-12.616,30.55,8.312,70.455,23.922,45.438,58.8,47.362,122.949,34.212,62.624-12.776,82.162-78.126,83.632-83.365l-6.923-25.418Z" transform="translate(-172.34 -38.889)"/><path class="g" d="M291.944,497.519s-34.4-111.189-29.882-180.869,30.417-72.166,65.751-76.095c15.689-1.764,99.268-14.139,130.567,22.692s86.385,209.334,86.385,209.334Z" transform="translate(-177.521 -69.257)"/><path class="d" d="M404.288,255.257l-5.346,37.206s-11.707,19.217-35.147,9.489S339.9,274.287,339.9,274.287l11.119-68.745s24.724-22.184,35.121-64.575c0,0,20.714,36.136,50.783,44.262,0,0-2,30.016-7.377,48.618C424.2,251.835,404.663,255.043,404.288,255.257Z" transform="translate(-165.713 -83.771)"/><path class="e" d="M376.55,306.187a34.106,34.106,0,0,1-13.2-2.833c-24.055-9.943-24.7-28.091-24.723-28.866l11.2-68.985a1.471,1.471,0,0,1,.428-.8c.241-.214,24.536-22.4,34.747-63.88a1.39,1.39,0,0,1,1.122-.989,1.337,1.337,0,0,1,1.337.641c.214.374,20.821,35.762,49.928,43.62a1.336,1.336,0,0,1,.989,1.39c0,.294-2.085,30.39-7.43,48.912-4.41,15.262-18.71,20.5-25.231,22.1l-5.346,36.323a1.6,1.6,0,0,1-.16.508A29.4,29.4,0,0,1,376.55,306.187ZM352.5,206.357,341.43,274.674c0,.428.8,16.946,23.093,26.22,20.821,8.633,32.074-6.735,33.357-8.74l5.346-36.912a1.257,1.257,0,0,1,.668-.962,2.088,2.088,0,0,1,.8-.267c5.747-1.363,19.592-6.094,23.708-20.367,4.7-16.277,6.842-41.723,7.243-47.255-25.124-7.377-43.353-33.276-48.805-41.856C376.684,182.168,355.382,203.417,352.5,206.357Zm46.667,86.278Z" transform="translate(-165.906 -83.945)"/><path class="d" d="M365.864,200.178a16.037,16.037,0,0,0-4.063-9.355,28.093,28.093,0,0,0-7.858-5.666,12.162,12.162,0,0,0-5-1.737,10.156,10.156,0,0,0-3.662.722,12.509,12.509,0,0,0-6.842,5.346,14.568,14.568,0,0,0-1.417,6.923,29.614,29.614,0,0,0,.695,7.7,19.511,19.511,0,0,0,24.055,14.112" transform="translate(-166.151 -77.365)"/><path class="f" d="M356.872,220.293a20.875,20.875,0,0,1-20.26-15.77,29.111,29.111,0,0,1-.748-8.018,16.037,16.037,0,0,1,1.577-7.537,13.739,13.739,0,0,1,7.457-5.907,11.814,11.814,0,0,1,4.17-.8,13.364,13.364,0,0,1,5.586,1.9,29.59,29.59,0,0,1,8.206,5.934,17.426,17.426,0,0,1,4.41,10.157,1.363,1.363,0,0,1-1.23,1.443,1.39,1.39,0,0,1-1.443-1.229,14.78,14.78,0,0,0-3.662-8.58,26.54,26.54,0,0,0-7.511-5.346,10.69,10.69,0,0,0-4.41-1.6,8.419,8.419,0,0,0-3.154.641,11.359,11.359,0,0,0-6.147,4.624,13.6,13.6,0,0,0-1.23,6.308,25.982,25.982,0,0,0,.668,7.35,18.2,18.2,0,0,0,22.345,13.15,1.326,1.326,0,1,1,.668,2.566,19.991,19.991,0,0,1-5.292.722Z" transform="translate(-166.327 -77.54)"/><path class="d" d="M391.884,188.761s10.5,20.714,7.056,23.681-11.734-.294-11.734-.294" transform="translate(-158.575 -76.559)"/><path class="e" d="M394.825,215.21a24.215,24.215,0,0,1-8.018-1.63,1.336,1.336,0,0,1-.748-1.737,1.363,1.363,0,0,1,1.737-.748c1.951.748,8.018,2.486,10.344.508,1.417-1.176-2.112-11.707-7.35-22.077a1.31,1.31,0,0,1,.588-1.791,1.363,1.363,0,0,1,1.791.588c3.287,6.522,10.558,22.024,6.736,25.311A8.018,8.018,0,0,1,394.825,215.21Z" transform="translate(-158.762 -76.734)"/><ellipse class="e" cx="4.49" cy="3.207" rx="4.49" ry="3.207" transform="translate(213.501 111.476) rotate(-85.34)"/><ellipse class="e" cx="4.49" cy="3.207" rx="4.49" ry="3.207" transform="translate(246.643 116.095) rotate(-85.74)"/><path class="e" d="M392.045,229.033a25.365,25.365,0,0,1-11.787-2.673c-6.388-3.341-10.477-9.729-12.161-18.977a1.336,1.336,0,0,1,1.1-1.55,1.363,1.363,0,0,1,1.55,1.069c1.5,8.393,5.132,14.139,10.691,17.079,11.226,5.88,27.022-1.229,27.182-1.31a1.336,1.336,0,0,1,1.764.668,1.31,1.31,0,0,1-.668,1.764A47.417,47.417,0,0,1,392.045,229.033Z" transform="translate(-161.462 -73.986)"/><path class="e" d="M400.626,241.295s-24.055,1.978-36.457-7.8c0,0,10.558,33.41,32.742,33.3Z" transform="translate(-162.051 -69.809)"/><path class="f" d="M396.933,268.309c-22.826,0-33.464-32.849-33.918-34.239a1.363,1.363,0,0,1,.535-1.5,1.283,1.283,0,0,1,1.577,0c11.947,9.328,35.281,7.537,35.522,7.511a1.336,1.336,0,0,1,1.417,1.524l-3.715,25.525A1.417,1.417,0,0,1,396.933,268.309ZM367,237.037c3.395,8.366,13.017,27.744,28.893,28.572l3.287-22.692c-5.132.214-20.955.374-32.127-5.88Z" transform="translate(-162.233 -69.989)"/><path class="g" d="M306.182,245.514c-49.367-6.147-95.713,203.427-68.771,223.34,42.017,31.085,170.258-11.359,170.258-11.359l-12.83-55.3S302.279,406.6,300.6,387.6s51.719-108.088,44.235-121.078S306.182,245.514,306.182,245.514Z" transform="translate(-182.377 -68.015)"/><path class="e" d="M449.351,399.636a1.176,1.176,0,0,1-1.2-1.042c-6.361-44.689-20.313-119.528-24.83-123.911a1.23,1.23,0,0,1,1.711-1.764c5.8,5.64,20.714,91.49,25.525,125.328a1.23,1.23,0,0,1-1.042,1.39Z" transform="translate(-153.177 -63.907)"/><path class="d" d="M416.029,481.841,330.82,457.972l156.493-29.428,84.7,35.495Z" transform="translate(-167.084 -40.375)"/><path class="e" d="M416.25,483.451a.8.8,0,0,1-.347,0L330.693,459.4a1.336,1.336,0,0,1,0-2.673l156.493-29.4a1.2,1.2,0,0,1,.748,0l84.7,35.495a1.341,1.341,0,0,1-.374,2.566L416.41,483.451Zm-79.329-24.937,79.436,22.265L567,463.592l-79.623-33.357Z" transform="translate(-167.304 -40.569)"/><path class="d" d="M361.941,398.238C380.65,400.3,398,401.632,415.4,408.929a131.177,131.177,0,0,1,27.958,16.037,90.052,90.052,0,0,1,12.268,10.477c2.994,3.261,2.031,6.442-2.993,4.865a60.751,60.751,0,0,1-16.411-8.018,174.1,174.1,0,0,1,31.726,33.865c1.016,1.443,2,3.5.8,4.784s-3.876,0-5.346-1.336l-26.434-25.071A83.846,83.846,0,0,1,454.58,465.7c.668,1.149,1.31,2.673.615,3.715-1.176,1.951-4.169.481-5.773-1.149a191.977,191.977,0,0,1-21.516-25.926l14.273,21.383a3.154,3.154,0,0,1-4.036,1.951,9.167,9.167,0,0,1-3.929-3.1L416.92,442.714l10.21,14.059c1.6,2.192,3.207,5.346,1.363,7.4s-6.014,0-8.366-2.085A173.142,173.142,0,0,0,389.15,439.56c-4.036-2.379-7.484-5.613-11.947-6.976-6.415-1.978-14.433-1.711-21.115-2.459" transform="translate(-163.271 -44.948)"/><path class="e" d="M467.612,472.957a7.805,7.805,0,0,1-4.7-2.3l-8.553-8.018c.561.882,1.122,1.791,1.63,2.673a4.892,4.892,0,0,1,.615,4.971,3.047,3.047,0,0,1-2.3,1.5,7.3,7.3,0,0,1-5.346-2.432c-1.764-1.764-3.475-3.555-5.158-5.346a1.206,1.206,0,0,1,0,.294,3.582,3.582,0,0,1-1.711,2.379,4.918,4.918,0,0,1-3.875.508,10.1,10.1,0,0,1-4.49-3.475l-3.154-3.608a5.052,5.052,0,0,1-.748,5.346,4.25,4.25,0,0,1-3.047,1.417,11.547,11.547,0,0,1-7.27-3.688,168,168,0,0,0-30.737-22.345,42.8,42.8,0,0,1-3.956-2.673,28.275,28.275,0,0,0-7.724-4.276,63.429,63.429,0,0,0-14.246-1.924c-2.3-.134-4.544-.267-6.655-.481a1.23,1.23,0,0,1-1.069-1.363,1.2,1.2,0,0,1,1.336-1.069c2.085.214,4.276.348,6.522.481a65.1,65.1,0,0,1,14.834,2,31.883,31.883,0,0,1,8.393,4.6c1.23.882,2.486,1.737,3.8,2.513A173.008,173.008,0,0,1,421.185,461.3a9.89,9.89,0,0,0,5.346,2.807,1.845,1.845,0,0,0,1.31-.615c1.443-1.577-.535-4.651-1.443-5.907l-10.21-14.032a1.176,1.176,0,0,1,.214-1.657,1.2,1.2,0,0,1,1.684,0l17.32,19.859a7.858,7.858,0,0,0,3.341,2.673,2.459,2.459,0,0,0,1.9-.24,1.2,1.2,0,0,0,.428-.374l-13.925-20.928a1.212,1.212,0,1,1,2-1.363,193.487,193.487,0,0,0,21.383,25.766A5.346,5.346,0,0,0,453.873,469a.588.588,0,0,0,.508-.321c.294-.454,0-1.31-.615-2.486A82.109,82.109,0,0,0,442.3,450.96l-5.96-5.666A1.229,1.229,0,0,1,438,443.5c2.112,1.817,4.116,3.715,6.04,5.72l20.42,19.378a5.025,5.025,0,0,0,3.074,1.657.668.668,0,0,0,.561-.267c.615-.642,0-2.085-.882-3.261a173.147,173.147,0,0,0-31.486-33.624,1.229,1.229,0,0,1,1.47-1.951,58.8,58.8,0,0,0,16.037,7.858c1.871.588,2.86.347,3.047,0s0-1.523-1.31-2.913a86.092,86.092,0,0,0-12.108-10.317,129.233,129.233,0,0,0-27.69-15.85c-15.689-6.548-31.379-8.232-48.11-10.023l-5.212-.588a1.21,1.21,0,1,1,.267-2.406l5.346.561c16.812,1.817,32.662,3.528,48.672,10.21a131.261,131.261,0,0,1,28.225,16.037,90.284,90.284,0,0,1,12.455,10.691c1.924,2.085,2.512,4.357,1.55,5.88-.561.855-2.058,2.138-5.827.962a56.989,56.989,0,0,1-6.388-2.379,176.025,176.025,0,0,1,23.066,26.354c1.844,2.673,2.085,4.838.722,6.335a3.181,3.181,0,0,1-2.3,1.042Z" transform="translate(-163.419 -45.149)"/><path class="d" d="M560.842,473.071l39-104.373-159.273,3.154-35.709,119.02Z" transform="translate(-155.911 -49.406)"/><path class="e" d="M405.031,492.453a1.283,1.283,0,0,1-1.016-.481,1.363,1.363,0,0,1-.267-1.23l35.709-119.02a1.39,1.39,0,0,1,1.256-.962l159.273-3.154a1.363,1.363,0,0,1,1.123.561,1.443,1.443,0,0,1,.16,1.23l-39,104.24a1.363,1.363,0,0,1-1.123.882L405.192,492.453Zm36.724-119.047-34.746,116.16,153.152-17.48,38.007-101.781Zm119.261,99.91Z" transform="translate(-156.086 -49.571)"/><path class="e" d="M569.157,460.441s43.219,35.094,28.038,67.275-291.336,68.958-291.336,68.958L293.43,554.6S510.061,443.95,569.157,460.441Z" transform="translate(-172.726 -35.815)"/><path class="f" d="M306.035,598.186a1.363,1.363,0,0,1-1.283-.962l-12.429-42.07a1.283,1.283,0,0,1,.668-1.55c.535-.294,54.873-27.958,115.759-53.3,81.922-34.078,136.046-47.87,160.85-40.974a1.337,1.337,0,0,1,.508.267,117.175,117.175,0,0,1,19.939,21.837c11.921,17.159,14.807,33.41,8.339,47.041-15.449,32.448-280.885,68.183-292.165,69.68Zm-10.852-42.765L307,595.3c19.3-2.673,274.631-37.9,288.984-68.023,14.112-29.722-24.055-62.784-27.37-65.484C512.429,446.8,311.38,547.4,295.344,555.474Z" transform="translate(-172.902 -35.989)"/><path class="e" d="M288.522,447s214.439,86.706,267.6,109.585l-30.9,47.736s-198-3.875-254.772-53.616S217.452,418.158,288.522,447Z" transform="translate(-182.117 -38.488)"/><path class="f" d="M525.426,605.894h0c-.481,0-50.222-1.042-106.244-8.152-75.373-9.6-125.622-24.991-149.383-45.812-29.722-26.033-50.543-71.738-34.185-98.279,5.346-8.82,19.618-21.516,53.67-7.724h0c2.138.882,215.054,87,267.628,109.585a1.283,1.283,0,0,1,.748.829,1.39,1.39,0,0,1-.16,1.123l-30.9,47.816A1.336,1.336,0,0,1,525.426,605.894ZM262.395,442.532c-10.985,0-19.4,4.223-24.536,12.509-12.616,20.5-2.112,63.533,33.677,94.885,54.017,47.335,239.831,52.948,253.169,53.269l29.668-45.839c-54.9-23.521-263.993-108.088-266.132-108.944h0A70.133,70.133,0,0,0,262.395,442.532Z" transform="translate(-182.317 -38.672)"/><path class="d" d="M541.674,425.767a7.59,7.59,0,0,0,1.55,3.368l4.169,6.228a4.517,4.517,0,0,0-6.2-3.1,7.3,7.3,0,0,0-3.822,6.6,21.006,21.006,0,0,0,1.871,7.778c2.967,7.7,9.675,18.95,19.378,13.124,6.575-3.956,8.393-17.908,9.328-24.857,1.844-13.685-2.352-31.272-19.939-28.6a33.836,33.836,0,0,0,7.217,18.469C552.365,422,540.792,417.7,541.674,425.767Z" transform="translate(-135.915 -43.772)"/><path class="e" d="M553.419,462.761a9.191,9.191,0,0,1-3.154-.534c-6.335-2.165-10.29-10.317-12.081-14.995A22.449,22.449,0,0,1,536.233,439a8.339,8.339,0,0,1,4.57-7.671,5.051,5.051,0,0,1,2.085-.454l-.588-.882a8.687,8.687,0,0,1-1.764-3.956,4.864,4.864,0,0,1,2.673-5.346,11.386,11.386,0,0,1,8.286.615A34.746,34.746,0,0,1,547,406.659a1.256,1.256,0,0,1,1.042-1.31,16.892,16.892,0,0,1,15.155,4.17c6.281,6.2,7.324,17.373,6.174,25.793-1.042,7.7-2.913,21.516-9.916,25.739A11.3,11.3,0,0,1,553.419,462.761Zm-10.37-29.4a3.178,3.178,0,0,0-1.256.24,6.067,6.067,0,0,0-3.1,5.506,19.456,19.456,0,0,0,1.764,7.323c1.337,3.421,5.025,11.627,10.691,13.551a8.018,8.018,0,0,0,7-1.042c6.014-3.608,7.831-17.186,8.713-23.708,1.1-8.018.214-18.442-5.346-24.055a14.139,14.139,0,0,0-11.948-3.662,32.741,32.741,0,0,0,6.869,16.652,1.2,1.2,0,0,1-.134,1.657,1.229,1.229,0,0,1-1.684,0c-1.791-1.764-7.7-4.276-10.344-2.993-.588.267-1.336.882-1.149,2.967h0a7.242,7.242,0,0,0,1.336,2.833l2.245,3.314a4.758,4.758,0,0,1,2.138,3.448,1.229,1.229,0,0,1-.8,1.283,1.2,1.2,0,0,1-1.417-.481l-1.657-2.459A3.823,3.823,0,0,0,543.049,433.36Z" transform="translate(-136.087 -43.934)"/><path class="d" d="M507.313,541.028a1.679,1.679,0,0,1-.508,0c-4.677-1.818-115.225-44.609-140.135-59.871a1.39,1.39,0,0,1-.454-1.9,1.363,1.363,0,0,1,1.9-.454c24.7,15.128,138.532,59.2,139.681,59.63a1.39,1.39,0,0,1,.8,1.791A1.363,1.363,0,0,1,507.313,541.028Z" transform="translate(-161.773 -32.822)"/><path class="e" d="M298.477,471.755a1.339,1.339,0,0,1-.16-2.673l64.147-7.778,10.184-51.345-82.189-6.949a1.309,1.309,0,0,1-.989-.561,1.283,1.283,0,0,1-.214-1.122L323.04,275.544a1.381,1.381,0,0,1,2.673.695L292.33,400.5l81.975,6.789a1.416,1.416,0,0,1,.962.535,1.363,1.363,0,0,1,.241,1.069l-10.691,53.75a1.363,1.363,0,0,1-1.149,1.069l-65.19,7.885Z" transform="translate(-173.363 -63.619)"/><rect class="h" width="133.266" height="13.792" transform="translate(345.086 45.168)"/><rect class="h" width="133.266" height="13.792" transform="translate(493.855 45.168)"/><path class="g" d="M0,0H78.233V13.792H0Z" transform="translate(400.12 68.796)"/><rect class="h" width="118.379" height="13.792" transform="translate(493.855 68.796)"/><rect class="h" width="98.6" height="13.792" transform="translate(379.753 92.45)"/><rect class="h" width="55.594" height="13.792" transform="translate(493.855 92.45)"/><rect class="h" width="57.519" height="13.792" transform="translate(420.861 116.078)"/><path class="g" d="M0,0H108.89V13.792H0Z" transform="translate(493.855 116.078)"/><rect class="g" width="18.309" height="13.792" transform="translate(460.044 139.732)"/><rect class="h" width="73.155" height="13.792" transform="translate(493.855 139.732)"/><rect class="g" width="122.468" height="15.796" transform="translate(353.586 236.915)"/><rect class="h" width="75.213" height="15.796" transform="translate(495.726 236.915)"/><rect class="h" width="99.429" height="15.796" transform="translate(376.599 263.964)"/><rect class="h" width="109.505" height="15.796" transform="translate(495.726 263.964)"/><rect class="h" width="49.714" height="15.796" transform="translate(426.313 291.04)"/><rect class="h" width="130.219" height="15.796" transform="translate(495.726 291.04)"/><rect class="h" width="18.629" height="15.796" transform="translate(457.398 318.115)"/><rect class="g" width="138.398" height="15.796" transform="translate(495.726 318.115)"/><rect class="h" width="92.96" height="15.796" transform="translate(495.726 345.164)"/><path class="h" d="M661.541,269.628l-10.05-4.009v-5.346l10.05-4.009,10.05-4.009v6.361c-1.817.775-3.608,1.5-5.346,2.192s-3.582,1.417-5.346,2.192l5.346,2.031,5.346,2.031v6.468Z" transform="translate(-118.693 -66.978)"/><path class="h" d="M671.533,276.316l11.921-30.657,6.254,1.871-12,30.791Z" transform="translate(-115.669 -67.973)"/><path class="h" d="M699.93,256.333c3.341,1.336,6.709,2.673,10.05,4.009v5.346L699.93,269.7l-10.05,4.009v-6.548l5.346-2.031,5.346-2.031c-1.817-.775-3.608-1.5-5.346-2.192s-3.582-1.417-5.346-2.192v-6.388Z" transform="translate(-112.9 -66.967)"/><path class="h" d="M491.434,102.558a4.087,4.087,0,0,1,.4-1.791,4.2,4.2,0,0,1,1.042-1.5,4.943,4.943,0,0,1,1.523-.962,5,5,0,0,1,1.9-.374,4.677,4.677,0,0,1,1.791.374,5.132,5.132,0,0,1,1.5.962,4.944,4.944,0,0,1,1.016,1.5,4.463,4.463,0,0,1,.374,1.791,4.6,4.6,0,0,1-.375,1.818,4.892,4.892,0,0,1-1.015,1.416,4.806,4.806,0,0,1-5.186.962,4.492,4.492,0,0,1-1.523-.962,4.142,4.142,0,0,1-1.042-1.417A4.2,4.2,0,0,1,491.434,102.558Zm0,15.663a4.624,4.624,0,0,1,1.443-3.261,4.544,4.544,0,0,1,1.523-.989,5,5,0,0,1,1.9-.347,4.65,4.65,0,0,1,1.791.347,4.7,4.7,0,0,1,1.5.989,4.812,4.812,0,0,1,1.016,1.47,4.543,4.543,0,0,1,0,3.608,4.677,4.677,0,0,1-1.016,1.443,5.132,5.132,0,0,1-1.5.962,4.651,4.651,0,0,1-1.791.347,5,5,0,0,1-1.9-.347,4.944,4.944,0,0,1-1.523-.962,4.01,4.01,0,0,1-1.042-1.443A4.115,4.115,0,0,1,491.434,118.221Z" transform="translate(-142.847 -90.265)"/><path class="h" d="M627.037,495.782a4.731,4.731,0,0,0,2.967-.855c.749-.561,1.1-1.737,1.1-3.555v-8.286a15.522,15.522,0,0,1,.535-4.063,10.183,10.183,0,0,1,1.657-3.421,8.553,8.553,0,0,1,2.887-2.352,9.461,9.461,0,0,1,4.277-.882h6.014v8.606h-2.112a2.673,2.673,0,0,0-2.486,1.176,5.131,5.131,0,0,0-.668,2.673v8.446a7.777,7.777,0,0,1-.561,3.127,7.192,7.192,0,0,1-1.336,2.085,5.535,5.535,0,0,1-1.738,1.256,4.6,4.6,0,0,1-1.684.508h0a7.112,7.112,0,0,1,1.684.535,5.348,5.348,0,0,1,1.737,1.2,7.376,7.376,0,0,1,1.9,5.212v8.473a4.972,4.972,0,0,0,.668,2.673,2.673,2.673,0,0,0,2.486,1.2h2.112v8.607h-6.014a9.463,9.463,0,0,1-4.277-.882,8.551,8.551,0,0,1-2.887-2.352,10.443,10.443,0,0,1-1.657-3.421,15.884,15.884,0,0,1-.535-4.089v-8.286a4.276,4.276,0,0,0-1.1-3.528,4.731,4.731,0,0,0-2.967-.855Z" transform="translate(-122.384 -33.763)"/><path class="h" d="M709.8,504.683a4.811,4.811,0,0,0-2.993.855,4.357,4.357,0,0,0-1.1,3.528v8.286a15.872,15.872,0,0,1-.535,4.089,9.939,9.939,0,0,1-1.657,3.421,8.018,8.018,0,0,1-2.886,2.352,9.466,9.466,0,0,1-4.277.882h-6.014V519.41h2.138a2.673,2.673,0,0,0,2.459-1.2,4.972,4.972,0,0,0,.668-2.673v-8.473a7.751,7.751,0,0,1,.561-3.1,7.194,7.194,0,0,1,1.363-2.112,5.346,5.346,0,0,1,1.711-1.2,7.705,7.705,0,0,1,1.71-.535h0a4.866,4.866,0,0,1-1.711-.508,5.348,5.348,0,0,1-1.711-1.256,6.713,6.713,0,0,1-1.363-2.085,7.78,7.78,0,0,1-.561-3.127v-8.473a5.129,5.129,0,0,0-.668-2.673,2.673,2.673,0,0,0-2.459-1.176h-2.138v-8.446h6.014a9.464,9.464,0,0,1,4.276.882,8.019,8.019,0,0,1,2.887,2.352,9.7,9.7,0,0,1,1.657,3.421,15.522,15.522,0,0,1,.535,4.063v8.286a4.384,4.384,0,0,0,1.1,3.555,4.811,4.811,0,0,0,2.993.855Z" transform="translate(-112.83 -33.763)"/></g></g></svg>