<svg xmlns="http://www.w3.org/2000/svg" xmlns:xlink="http://www.w3.org/1999/xlink" width="836" height="901" viewBox="0 0 836 901"><defs><style>.a{fill:#fff;}.b{clip-path:url(#a);}.c{fill:#fef6e2;}</style><clipPath id="a"><path class="a" d="M0,0H823a13,13,0,0,1,13,13V901a0,0,0,0,1,0,0H0a0,0,0,0,1,0,0V0A0,0,0,0,1,0,0Z" transform="translate(844 101)"/></clipPath></defs><g class="b" transform="translate(-844 -101)"><path class="c" d="M-2.857,0,698-.236,697.833,752.5S459.251,922.729,296.455,858.523,87.1,560.341,46.647,495.677C-45.929,347.706-107.165,353.465-119.541,229.545S-2.857,0-2.857,0Z" transform="translate(982 101)"/></g></svg>