<svg xmlns="http://www.w3.org/2000/svg" xmlns:xlink="http://www.w3.org/1999/xlink" width="24" height="24" viewBox="0 0 24 24"><defs><style>.a{fill:#fef6e2;}.b{clip-path:url(#a);}</style><clipPath id="a"><rect class="a" width="24" height="24" transform="translate(30 18)"/></clipPath></defs><g class="b" transform="translate(-30 -18)"><g transform="translate(30.963 18)"><path d="M8.62,19.935a.444.444,0,0,1-.094-.879,5.873,5.873,0,0,0-1.68-3.07,9.53,9.53,0,0,1-1.629-2.328,7.032,7.032,0,0,1-.7-3.053A7.169,7.169,0,0,1,5.373,7.34l.012-.021h0A6.2,6.2,0,0,1,8.407,4.678a6.692,6.692,0,0,1,3.145-.449,7.243,7.243,0,0,1,3,.965,6.2,6.2,0,0,1,2.621,2.971,6.581,6.581,0,0,1,.5,2.309,6.677,6.677,0,0,1-.51,2.711,9.606,9.606,0,0,1-1.85,2.834,6.321,6.321,0,0,0-1.449,2.313.444.444,0,0,1-.041.871l-.15.021q-.041.319-.053.686l.049-.008a.444.444,0,0,1,.121.879l-.152.021.006.088h0a3.528,3.528,0,0,1,.006.5l.025,0a.445.445,0,1,1,.109.883l-.328.041a2.658,2.658,0,0,1-1.147,1.356,2.5,2.5,0,0,1-1.1.334,2.272,2.272,0,0,1-1.129-.221,2.381,2.381,0,0,1-1.033-1,.446.446,0,0,1-.24-.342.43.43,0,0,1,.014-.174,4.05,4.05,0,0,1-.17-.748l-.014,0a.444.444,0,0,1-.121-.879l.105-.016c.008-.238.006-.465,0-.68ZM.426,11.5A.413.413,0,1,1,.4,10.671l1.7-.059a.413.413,0,1,1,.025.826l-1.7.059ZM21.618,9.815a.413.413,0,0,1,.084.822l-1.692.178a.413.413,0,0,1-.084-.822l1.692-.178Zm-3.08-6.928a.413.413,0,1,1,.686.459L18.278,4.76a.413.413,0,0,1-.686-.459l.945-1.414ZM11.257.4a.412.412,0,1,1,.824.02l-.043,1.7a.412.412,0,1,1-.824-.02L11.257.4ZM2.711,3.033a.413.413,0,0,1,.563-.606l1.244,1.16a.413.413,0,1,1-.563.606L2.711,3.033Zm6.641,15.9,3.612-.514a6.609,6.609,0,0,1,1.719-2.945,8.916,8.916,0,0,0,1.711-2.606,5.88,5.88,0,0,0,.451-2.381,5.717,5.717,0,0,0-.438-2.02A5.369,5.369,0,0,0,14.132,5.9a6.359,6.359,0,0,0-2.654-.854,5.884,5.884,0,0,0-2.76.395A5.376,5.376,0,0,0,6.1,7.733,6.348,6.348,0,0,0,5.34,10.61a6.2,6.2,0,0,0,.625,2.7,8.884,8.884,0,0,0,1.5,2.133,6.531,6.531,0,0,1,1.885,3.5Zm3.465.4-3.373.479c.01.215.014.439.01.678l3.33-.473c0-.24.014-.469.033-.684ZM9.471,21.392a3.218,3.218,0,0,0,.1.5l3.233-.4a2.552,2.552,0,0,0,.01-.535h0v0l0-.033-3.344.475Zm.563,1.336a1.42,1.42,0,0,0,.41.3,1.452,1.452,0,0,0,.717.141,1.66,1.66,0,0,0,.731-.225,1.791,1.791,0,0,0,.563-.518l-2.42.3Z"/></g></g></svg>