<svg xmlns="http://www.w3.org/2000/svg" xmlns:xlink="http://www.w3.org/1999/xlink" width="24" height="24" viewBox="0 0 24 24"><defs><style>.a{fill:#fef6e2;}.b{clip-path:url(#a);}</style><clipPath id="a"><rect class="a" width="24" height="24" transform="translate(30 18)"/></clipPath></defs><g class="b" transform="translate(-30 -18)"><path d="M6.16,16.98a.616.616,0,1,1,0-1.233h4.582a.616.616,0,1,1,0,1.233Zm0-8.722a.616.616,0,0,1,0-1.233h8.129a.616.616,0,0,1,0,1.233ZM1.431,0H19.018a1.429,1.429,0,0,1,1.431,1.431V22.569A1.429,1.429,0,0,1,19.018,24H1.431A1.429,1.429,0,0,1,0,22.569V1.431A1.429,1.429,0,0,1,1.431,0ZM19.018,1.233H1.431a.2.2,0,0,0-.2.2V22.574a.2.2,0,0,0,.2.2H19.018a.2.2,0,0,0,.2-.2V1.435a.2.2,0,0,0-.2-.2ZM6.16,12.619a.616.616,0,1,1,0-1.233h8.129a.616.616,0,0,1,0,1.233Z" transform="translate(31.776 18)"/></g></svg>