<svg xmlns="http://www.w3.org/2000/svg" xmlns:xlink="http://www.w3.org/1999/xlink" width="24" height="24" viewBox="0 0 24 24"><defs><style>.a{fill:#fef6e2;}.b{clip-path:url(#a);}.c{fill-rule:evenodd;}</style><clipPath id="a"><rect class="a" width="24" height="24" transform="translate(30 18)"/></clipPath></defs><g class="b" transform="translate(-30 -18)"><path class="c" d="M12,.3A12,12,0,0,0,8.206,23.684c.6.111.821-.261.821-.578,0-.286-.012-1.231-.017-2.233-3.339.726-4.042-1.416-4.042-1.416A3.177,3.177,0,0,0,3.635,17.7c-1.089-.745.083-.729.083-.729a2.52,2.52,0,0,1,1.839,1.236,2.556,2.556,0,0,0,3.492,1A2.557,2.557,0,0,1,9.811,17.6c-2.665-.3-5.467-1.332-5.467-5.93A4.647,4.647,0,0,1,5.58,8.449,4.308,4.308,0,0,1,5.7,5.274S6.7,4.951,9,6.5A11.384,11.384,0,0,1,15,6.5c2.29-1.552,3.3-1.23,3.3-1.23a4.309,4.309,0,0,1,.118,3.175,4.634,4.634,0,0,1,1.235,3.22c0,4.609-2.808,5.622-5.479,5.919a2.866,2.866,0,0,1,.815,2.221c0,1.6-.014,2.9-.014,3.293,0,.319.216.693.825.576A12,12,0,0,0,12,.295v0Z" transform="translate(30 18)"/></g></svg>