<svg xmlns="http://www.w3.org/2000/svg" xmlns:xlink="http://www.w3.org/1999/xlink" width="24" height="24" viewBox="0 0 24 24"><defs><style>.a{fill:#fef6e2;}.b{clip-path:url(#a);}</style><clipPath id="a"><rect class="a" width="24" height="24" transform="translate(30 18)"/></clipPath></defs><g class="b" transform="translate(-30 -18)"><path d="M1.378,0H22.641A1.382,1.382,0,0,1,24.01,1.378V15.992a1.368,1.368,0,0,1-.238.782.543.543,0,0,1-.129.2.512.512,0,0,1-.129.09,1.368,1.368,0,0,1-.882.323H1.378A1.382,1.382,0,0,1,.01,16.013V1.378A1.382,1.382,0,0,1,1.378,0ZM1.319,15.411,8.509,7.94,1.319,1.865V15.411ZM9.592,8.872,1.91,16.312H22.043L14.7,8.872l-2.15,1.8h0a.528.528,0,0,1-.674,0Zm6.177-.946L22.7,15.472V1.8ZM2,1.057,12.2,9.324l9.75-8.266Z" transform="translate(29.99 21.309)"/></g></svg>