<svg xmlns="http://www.w3.org/2000/svg" xmlns:xlink="http://www.w3.org/1999/xlink" width="24" height="24" viewBox="0 0 24 24"><defs><style>.a{fill:#fef6e2;}.b{clip-path:url(#a);}</style><clipPath id="a"><rect class="a" width="24" height="24" transform="translate(30 18)"/></clipPath></defs><g class="b" transform="translate(-30 -18)"><g transform="translate(30 20.135)"><path d="M.962,5.583H18.083a.963.963,0,0,1,.962.962V18.769a.958.958,0,0,1-.282.679.558.558,0,0,1-.048.043.954.954,0,0,1-.631.239H.962A.963.963,0,0,1,0,18.769V6.545a.963.963,0,0,1,.962-.962Zm5.432-4.44A.571.571,0,0,1,6.393,0H23.429A.571.571,0,0,1,24,.571V12.579a.571.571,0,1,1-1.143,0V1.143ZM3.815,4.033a.571.571,0,0,1,0-1.143H20.85a.572.572,0,0,1,.571.571V15.469a.571.571,0,0,1-1.143,0V4.033H3.815ZM17.9,6.726H1.143V18.587H17.9V6.726Z"/></g></g></svg>